<svg width="390" height="140" viewBox="0 0 390 140" fill="none" xmlns="http://www.w3.org/2000/svg">
<path fill-rule="evenodd" clip-rule="evenodd" d="M56.7753 0.0172693C57.5844 -0.117589 58.3936 0.556702 58.3936 1.36585V14.0425C58.3936 14.4471 58.7982 14.8517 59.2027 14.7168C62.8439 13.9077 66.6199 13.5031 70.5308 13.5031C72.5537 13.5031 74.4417 13.6379 76.3297 13.7728C78.4874 14.0425 80.6452 14.3122 82.8029 14.8517C83.4772 14.9865 83.8818 15.526 83.8818 16.2002V36.5638C83.8818 37.5078 82.9378 38.1821 81.9938 37.9124C80.2406 37.2381 78.3526 36.6987 76.3297 36.429C74.4417 36.1592 72.5537 35.8895 70.5308 35.8895C53.6735 35.8895 39.6483 48.4313 37.3557 64.7492C37.3557 65.1537 37.6254 65.5583 38.03 65.5583H44.0986C44.3683 65.5583 44.7729 65.2886 44.7729 65.0189C46.5261 54.5 54.6175 46.1387 65.0016 43.8462C65.8108 43.7113 66.7548 44.2507 66.7548 45.1947V50.0496C66.7548 50.7239 66.3502 51.2634 65.6759 51.3982C57.7193 53.5559 51.9204 60.7034 51.9204 69.3343C51.9204 77.9653 57.7193 85.1127 65.6759 87.2705C66.3502 87.4053 66.7548 87.9448 66.7548 88.6191V108.578C66.7548 109.387 66.0805 110.061 65.2713 109.927C45.3123 107.364 29.6688 90.1025 29.6688 69.3343C29.6688 46.813 48.0095 28.4723 70.5308 28.4723C72.284 28.4723 73.9023 28.6072 75.5206 28.742C75.9251 28.742 76.3297 28.4723 76.3297 28.0678V21.9991C76.3297 21.5946 76.06 21.3249 75.6554 21.3249C73.9023 21.19 72.1491 21.0551 70.396 21.0551C43.694 21.0551 22.1167 42.7673 22.1167 69.3343C22.1167 97.1151 45.7169 119.502 73.9023 117.479C97.907 115.86 117.192 96.5757 118.81 72.8407C120.293 52.4771 108.965 34.5409 92.243 26.1797C91.8384 25.91 91.4338 25.5055 91.4338 24.966V18.6277C91.4338 18.0883 91.9733 17.8185 92.3778 17.9534C112.337 26.4495 126.362 46.2736 126.362 69.3343C126.362 95.362 108.561 117.209 84.4212 123.412C84.1515 123.547 83.8818 123.817 83.8818 124.087V137.573C83.8818 138.247 83.3423 138.786 82.8029 138.921C80.78 139.326 78.6223 139.595 76.4646 139.73C74.5766 139.865 72.5537 140 70.6657 140C31.6917 140 0 108.308 0 69.3343C0 37.2381 21.5773 9.99677 50.9764 1.50071C52.8644 0.961276 54.8873 0.421844 56.7753 0.0172693ZM14.295 73.1104H8.36121C7.95663 73.1104 7.68691 73.5149 7.68691 73.9195C9.9795 106.69 37.3557 132.583 70.6657 132.583C72.4188 132.583 74.172 132.448 75.7903 132.313C76.1949 132.313 76.4646 132.043 76.4646 131.639V125.57C76.4646 125.166 76.06 124.896 75.6554 124.896C74.0371 125.031 72.284 125.166 70.5308 125.166C41.2666 125.166 17.127 102.509 14.9693 73.7847C14.9693 73.3801 14.6995 73.1104 14.295 73.1104ZM44.3683 73.1104H38.2997C37.8951 73.1104 37.4906 73.5149 37.6254 73.9195C39.2437 86.0568 47.4701 96.1711 58.5284 100.487C58.933 100.621 59.4724 100.352 59.4724 99.8123V93.6088C59.4724 93.0694 59.2027 92.6648 58.6633 92.3951C51.5158 88.7539 46.3912 81.7413 45.0426 73.6498C44.9078 73.3801 44.638 73.1104 44.3683 73.1104ZM74.4417 45.1947C74.4417 44.2507 75.2508 43.7113 76.1949 43.8462C87.9275 46.4085 96.8281 56.7925 96.8281 69.3343C96.8281 81.8762 87.9275 92.2602 76.1949 94.8225C75.3857 94.9574 74.4417 94.418 74.4417 93.4739V88.6191C74.4417 87.9448 74.8463 87.4053 75.5206 87.2705C81.9938 85.5173 86.9835 80.3927 88.7367 73.9195C88.8715 73.5149 88.4669 73.1104 88.0624 73.1104H81.724C81.4543 73.1104 81.1846 73.2452 81.0497 73.5149C79.4314 77.5607 75.3857 80.5276 70.6657 80.5276C63.7879 80.5276 58.2587 74.1892 59.7422 67.0418C60.5513 62.7263 64.0576 59.22 68.3731 58.276C74.0371 57.1971 79.1617 60.2989 81.0497 65.0189C81.1846 65.2886 81.4543 65.4235 81.724 65.4235H88.0624C88.4669 65.4235 88.8715 65.0189 88.7367 64.6143C87.1184 58.1411 81.9938 53.0165 75.5206 51.2634C74.8463 51.1285 74.4417 50.5891 74.4417 49.9148V45.1947ZM70.6657 65.6932C68.6428 65.6932 67.0245 67.3115 67.0245 69.3343C67.0245 71.3572 68.6428 72.9755 70.6657 72.9755C72.6885 72.9755 74.3068 71.3572 74.3068 69.3343C74.3068 67.3115 72.6885 65.6932 70.6657 65.6932ZM50.9764 10.2665C50.9764 9.72705 50.4369 9.45734 50.0324 9.5922C26.7019 17.6837 9.44007 39.1261 7.68691 64.884C7.68691 65.2886 7.95663 65.6932 8.36121 65.6932H14.4298C14.8344 65.6932 15.1041 65.4235 15.1041 65.0189C16.7224 43.1719 31.0174 24.8312 50.5718 17.2791C50.8415 17.1443 50.9764 16.8745 50.9764 16.6048V10.2665Z" fill="white"/>
<path d="M156.213 85.4355V47.6254H179.032V51.687H160.792V64.4627H177.851V68.5244H160.792V81.3739H179.328V85.4355H156.213ZM199.322 57.0779V60.7703H184.036V57.0779H199.322ZM188.614 85.4355V53.164C188.614 51.5393 188.996 50.1855 189.759 49.1023C190.522 48.0192 191.513 47.2069 192.731 46.6654C193.95 46.1238 195.236 45.853 196.59 45.853C197.661 45.853 198.534 45.9392 199.211 46.1115C199.888 46.2838 200.393 46.4438 200.725 46.5915L199.47 50.3578C199.248 50.2839 198.941 50.1916 198.547 50.0808C198.165 49.9701 197.661 49.9147 197.033 49.9147C195.593 49.9147 194.553 50.2778 193.913 51.0039C193.285 51.7301 192.971 52.7947 192.971 54.1979V85.4355H188.614ZM218.056 57.0779V60.7703H202.77V57.0779H218.056ZM207.348 85.4355V53.164C207.348 51.5393 207.73 50.1855 208.493 49.1023C209.256 48.0192 210.247 47.2069 211.465 46.6654C212.684 46.1238 213.97 45.853 215.324 45.853C216.395 45.853 217.269 45.9392 217.946 46.1115C218.623 46.2838 219.127 46.4438 219.459 46.5915L218.204 50.3578C217.983 50.2839 217.675 50.1916 217.281 50.0808C216.899 49.9701 216.395 49.9147 215.767 49.9147C214.327 49.9147 213.287 50.2778 212.647 51.0039C212.019 51.7301 211.705 52.7947 211.705 54.1979V85.4355H207.348ZM234.884 86.0263C232.152 86.0263 229.795 85.4232 227.814 84.2171C225.844 82.9986 224.324 81.3001 223.253 79.1215C222.195 76.9307 221.666 74.383 221.666 71.4783C221.666 68.5736 222.195 66.0135 223.253 63.7981C224.324 61.5703 225.814 59.8349 227.721 58.5918C229.641 57.3364 231.881 56.7087 234.441 56.7087C235.918 56.7087 237.377 56.9548 238.817 57.4472C240.257 57.9395 241.568 58.7395 242.749 59.8472C243.931 60.9426 244.872 62.395 245.574 64.2043C246.276 66.0135 246.626 68.2413 246.626 70.8875V72.7337H224.767V68.9675H242.195C242.195 67.3674 241.875 65.9397 241.235 64.6843C240.608 63.4289 239.709 62.4381 238.54 61.7119C237.383 60.9857 236.017 60.6226 234.441 60.6226C232.706 60.6226 231.204 61.0534 229.937 61.915C228.681 62.7642 227.715 63.8719 227.038 65.2381C226.361 66.6043 226.023 68.069 226.023 69.6321V72.1429C226.023 74.2845 226.392 76.0999 227.13 77.5892C227.881 79.0662 228.921 80.1923 230.251 80.9677C231.58 81.7308 233.124 82.1124 234.884 82.1124C236.029 82.1124 237.063 81.9524 237.986 81.6324C238.922 81.3001 239.728 80.8077 240.405 80.1554C241.082 79.4908 241.605 78.6662 241.974 77.6815L246.183 78.8631C245.74 80.2908 244.996 81.5462 243.949 82.6293C242.903 83.7001 241.611 84.5371 240.072 85.1402C238.534 85.7309 236.805 86.0263 234.884 86.0263ZM264.774 86.0263C262.116 86.0263 259.827 85.3986 257.907 84.1432C255.987 82.8878 254.51 81.1585 253.476 78.9554C252.442 76.7523 251.925 74.2353 251.925 71.4044C251.925 68.5244 252.454 65.9828 253.513 63.7796C254.583 61.5642 256.073 59.8349 257.98 58.5918C259.9 57.3364 262.141 56.7087 264.701 56.7087C266.695 56.7087 268.491 57.0779 270.092 57.8164C271.692 58.5549 273.002 59.5888 274.024 60.918C275.045 62.2473 275.679 63.7981 275.926 65.5704H271.568C271.236 64.2781 270.498 63.1335 269.353 62.1365C268.221 61.1273 266.695 60.6226 264.774 60.6226C263.076 60.6226 261.587 61.0657 260.307 61.9519C259.039 62.8258 258.048 64.0627 257.334 65.6628C256.633 67.2505 256.282 69.1151 256.282 71.2567C256.282 73.4476 256.627 75.3553 257.316 76.98C258.017 78.6046 259.002 79.8662 260.27 80.7647C261.55 81.6631 263.051 82.1124 264.774 82.1124C265.907 82.1124 266.935 81.9155 267.858 81.5216C268.781 81.1277 269.562 80.5616 270.202 79.8231C270.842 79.0846 271.298 78.1984 271.568 77.1646H275.926C275.679 78.8385 275.07 80.3462 274.098 81.6878C273.138 83.017 271.864 84.0755 270.276 84.8632C268.701 85.6386 266.867 86.0263 264.774 86.0263ZM294.627 57.0779V60.7703H279.932V57.0779H294.627ZM284.215 50.2839H288.572V77.3123C288.572 78.5431 288.75 79.4662 289.107 80.0816C289.477 80.6847 289.944 81.0908 290.51 81.3001C291.089 81.497 291.698 81.5955 292.338 81.5955C292.818 81.5955 293.212 81.5708 293.52 81.5216C293.827 81.4601 294.074 81.4108 294.258 81.3739L295.144 85.2879C294.849 85.3986 294.437 85.5094 293.907 85.6202C293.378 85.7432 292.707 85.8048 291.895 85.8048C290.664 85.8048 289.458 85.5402 288.277 85.0109C287.107 84.4817 286.135 83.6755 285.36 82.5924C284.596 81.5093 284.215 80.1431 284.215 78.4938V50.2839ZM312.681 85.4355H307.881L321.764 47.6254H326.491L340.374 85.4355H335.574L324.275 53.6071H323.98L312.681 85.4355ZM314.453 70.666H333.802V74.7276H314.453V70.666ZM350.842 47.6254V85.4355H346.263V47.6254H350.842Z" fill="white"/>
</svg>
