<svg width="100" height="100" viewBox="0 0 100 100" fill="none" xmlns="http://www.w3.org/2000/svg">
<path d="M58.2855 17.0608L21.7141 80.4044C20.5017 82.5044 18.5047 84.0367 16.1625 84.6643C13.8203 85.2919 11.3247 84.9633 9.22471 83.7509C7.12474 82.5385 5.59241 80.5415 4.96481 78.1993C4.33722 75.8571 4.66577 73.3615 5.87819 71.2615L42.4496 7.91797C43.662 5.818 45.659 4.28567 48.0012 3.65808C50.3434 3.03048 52.839 3.35904 54.939 4.57145C57.039 5.78387 58.5713 7.78084 59.1989 10.1231C59.8265 12.4653 59.4979 14.9609 58.2855 17.0608Z" stroke="#D7D7D7" stroke-width="3"/>
<path d="M58.2858 7.91795L94.8572 71.2615C96.0696 73.3615 96.3982 75.8571 95.7706 78.1993C95.143 80.5415 93.6107 82.5385 91.5107 83.7509C89.4107 84.9633 86.9151 85.2918 84.5729 84.6643C82.2307 84.0367 80.2337 82.5043 79.0213 80.4044L42.4499 17.0608C41.2375 14.9608 40.9089 12.4652 41.5365 10.123C42.1641 7.78082 43.6964 5.78385 45.7964 4.57143C47.8964 3.35901 50.392 3.03046 52.7342 3.65805C55.0764 4.28565 57.0734 5.81798 58.2858 7.91795Z" stroke="#D7D7D7" stroke-width="3"/>
<path d="M22.8572 51.4286H77.7144C80.1392 51.4286 82.4647 52.3919 84.1793 54.1065C85.894 55.8211 86.8572 58.1466 86.8572 60.5714C86.8572 62.9963 85.894 65.3218 84.1793 67.0364C82.4647 68.751 80.1392 69.7143 77.7144 69.7143H22.8572C20.4324 69.7143 18.1069 68.751 16.3922 67.0364C14.6776 65.3218 13.7144 62.9963 13.7144 60.5714C13.7144 58.1466 14.6776 55.8211 16.3922 54.1065C18.1069 52.3919 20.4324 51.4286 22.8572 51.4286Z" stroke="#D7D7D7" stroke-width="3"/>
</svg>
