<svg xmlns="http://www.w3.org/2000/svg" height="800" width="1200" viewBox="-40.744365 -11.51515 353.11783 69.0909"
>
    <path
        d="M120.7652 21.5262a1784.6407 1784.6407 0 010-7.624c-2.1849-.0149-4.3643-.0108-6.5492-.0054-.0054-2.771-.0108-5.5436.0109-8.3092-2.8878.0149-5.781.0095-8.6676.0054v8.2984h-3.5934c-.0055 2.5431 0 5.0862 0 7.6348h3.588v.0054h.0054c.0095 2.3206-.0027 4.6439-.004 6.9658h-.0014c-.0013.1927 0 .3854 0 .5781 0 .1452-.0013.2918-.0013.437h.0013c0 1.353.004 2.706.0217 4.059.0733 3.6586 1.4046 7.5777 4.4851 9.7273 2.7114 1.9393 6.0891 2.3016 9.3311 2.2582-2.6666-2.778-4.2666-6.8369-4.9098-10.0965l-.019-.095-.0122-.0964c-.0869-.7152-.1954-1.8646-.1832-3.0778a21.704 21.704 0 01-.0462-.7708c-.0095-.6595-.0095-1.319-.0122-1.9772-.0122-2.6395.015-5.2763.0068-7.9117 2.1794.0055 4.3643.0055 6.5492-.0054m-20.419-13.5548a597.4297 597.4297 0 010-7.6403c-4.276-.7178-9.2008-.4342-12.6274 2.5215-3.0656 2.7548-3.6681 7.1354-3.5582 11.045h-3.7455c.0041 2.5445.0041 5.0904 0 7.6362h3.1633c.2009-.0014.4017-.0027.6026-.0027v.0027h.0176v4.173h-.0136c.0068 6.2465.0095 12.4957-.004 18.7423h4.025c1.5905 0 3.1823.0013 4.7728-.0041-.0041-6.3402-.0082-12.679.0013-19.0164v-3.903h5.868a1789.0906 1789.0906 0 010-7.6334h-5.9114c.0787-1.718-.1194-3.7726 1.2946-5.0455 1.7031-1.4304 4.0766-.9649 6.115-.8753M68.4525 44.4485h3.9084c.7396 0 1.4792-.0013 2.2201 0h2.4699c-.053-6.5437.0515-13.0874-.053-19.6325-.0678-3.8405-1.5253-8.1003-5.1866-9.9025-5.2356-2.6042-11.3708-2.0166-16.9565-1.1209-.0203 2.7765-.0054 5.5585-.0095 8.3418 3.5935-.7803 7.5127-1.5932 11.0709-.2619 1.6556.57 2.2744 2.3152 2.531 3.892-2.489-.3134-5.0144-.9065-7.525-.3976-2.976.3664-5.9249 1.824-7.6076 4.3752-2.7141 4.0603-1.9393 10.201 2.0803 13.1363 3.7727 2.8756 9.2538 2.5662 13.0889-.0366a162.5698 162.5698 0 01-.0313 1.6067m-.3623-6.6116c-2.227.6867-4.9451 1.4467-6.9888-.1099-1.866-1.315-1.6244-4.485.3976-5.5218 2.064-1.0898 4.4742-.7084 6.6658-.2728.1982 1.965.1819 3.945-.0746 5.9045M23.4798 3.0146c3.5053.0203 7.0106.0054 10.5158.0054-5.135 6.906-10.1548 13.9004-15.3211 20.7806 4.6004 6.8749 9.1275 13.7904 13.7646 20.6382-3.6356.0271-7.2725-.0095-10.904.0217-4.0494-6.1461-8.1097-12.2868-12.1402-18.4438-.0095 6.1461-.0095 12.2922.0054 18.4383-3.1334-.0162-6.2669-.0054-9.4003-.0054.0109-13.8067.0109-27.6134 0-41.42 3.1334-.015 6.2628 0 9.395-.015-.0055 6.518-.015 13.0359.0053 19.5538 4.6737-6.5328 9.395-13.0304 14.0795-19.5538m11.1395 10.977c2.9503-.015 5.9046 0 8.8603-.015-.0109 1.9488-.015 3.8975-.0475 5.8422 1.4317-3.2285 4.5271-5.3292 7.9645-5.8842.0055 2.8918.0421 5.7892-.0366 8.681-3.7672.4506-7.6389 3.2597-7.776 7.3254-.1044 4.8312-.0203 9.6731-.0257 14.5097-2.9815 0-5.963 0-8.939-.0068.0055-10.1535.0055-20.303 0-30.4523"
        fill="#fff" />
    <path
        d="M191.9125 38.2591c-1.2362.494-1.4832.741-2.9651 1.235-1.4833.4953-3.2135.4953-4.6968 0-4.6954-1.976-1.7289-9.1439-1.7289-9.1439 19.277-4.6954 16.5588-15.0755 11.368-15.5709-3.2134 0-14.8285.4954-20.2662 13.8407-.741 1.9772-5.9317 16.0648 5.6847 17.0527 2.4712 0 5.1907-.247 7.662-1.4819 2.2242-1.2363 3.9544-2.7195 5.4363-4.6967 1.2363-2.2243-.494-1.235-.494-1.235m-2.7181-19.7723c1.4819.494-2.2243 7.909-2.2243 7.909-1.4832.494-2.9665.9892-3.9544.9892.494-.9893 3.2121-10.3801 6.1787-8.8982m47.6992 22.4907c-.247-.247-.741-.247-.988-.494-1.4832-.9893-.2483-3.7075 0-5.1908l4.4485-15.8165c.247-.9893 1.9772-6.1786-4.9438-5.1907-5.9317.9893-10.1331 4.6954-10.1331 4.6954.4953-1.4819.9892-3.7061 0-4.2014-1.235-.494-8.403 1.7302-10.1332 3.2135-.494 0-1.235.741-.494 1.4832.741.988.9893 1.729.494 3.4592-.988 2.9665-3.9531 13.3466-4.6954 15.3239-.741 1.9772-1.7303 5.6847 0 6.9196 1.2363.9893 6.4257-1.235 7.168-1.7302.741-.247 1.4819-.741 1.7289-.988.9893-.9893-.494-1.4832.9893-6.674 0-.247 1.7302-5.4364 2.9651-9.8848.9893-3.7075 4.4485-5.4377 5.6847-5.6847 1.9773-.247 1.4833 1.4833 1.2363 2.7182-1.7302 5.4377-3.7075 13.5936-4.4484 15.5708-.7423 1.9773-1.9773 5.9317 0 6.6727 1.7289 1.2363 9.6378-2.2242 10.3801-2.7182 1.482-.9893 1.482-1.4832.741-1.4832"
        fill="#fff" />
    <path
        d="M206.7416 40.9775c-.494-.247-.7409-.247-.9892-.494-1.482-.9893-.494-3.7075 0-5.1908l4.6967-15.8165c.247-1.7302 1.235-3.9544 0-4.6967-1.4832-.494-8.6512 1.7302-10.3801 3.2135-.2483 0-.9893.741-.2483 1.4832.7423.988.7423 1.729.2483 3.4592-.7423 2.9665-4.2028 13.5936-4.9438 15.5708-.741 1.9773-1.7302 5.9317.494 6.6727 1.7303 1.2363 9.1452-1.9772 10.1332-2.7182 1.7302-.7423 1.7302-1.4832.9893-1.4832m-1.483-29.9048c.494.9879 4.9424-.988 7.168-2.2243.247-.247 1.2349-.9893 1.4819-1.7302.4953-1.7303.7423-2.4712.9893-3.7075.247-.494.247-1.235-.494-1.4832-.9893-.247-6.921.4953-8.4043 2.9665-.494.988-2.2242 5.6847-.741 6.1787m66.2357 17.3005c-.741-2.7181-5.1907-3.4605-6.9196-1.9772-.9893.988-1.4833 2.9652-1.2363 3.4605 4.2014-1.2363 4.9424 2.4712 4.2014 3.9531-1.4832 2.2256-1.9772 2.9665-3.9544 2.9665H250.487c-.247-.247-.4954-.494 0-.9893.741-.9879 13.5923-18.5346 14.0876-19.277.247-.494.988-1.7302-.7423-1.7302h-14.3346c-1.482 0-2.2242.494-3.4592 1.7302-.9893 1.2363-2.2242 4.9424-2.9665 7.415 0 0 0 .988 1.4833-.247.247-.2483.741-1.2363 1.4832-1.2363h8.65c2.7181 0-11.6165 13.5937-16.065 20.7603-.7409 1.2363.494 1.2363 1.2364 1.2363h18.783c4.6954 0 3.9544.741 6.4256-2.7196 0 0 7.6606-9.8848 6.4257-13.3453m-103.3078 8.4029l5.1908-20.0193c3.4591-12.1104 5.4364-12.6043 6.6726-13.8406h-8.1559c-2.9651 0-5.1907 4.2014-5.6847 6.921l-3.4605 12.6043h-7.4136s4.4485-16.0648 4.9424-17.795c.247-.741.247-1.7303-1.2349-1.7303-.2483 0-15.8179-.494-20.7616 1.2363-2.2242.741-5.4364 2.7182-6.4257 5.6847-.741 1.7302-1.7302 4.9424.4953 10.874.247.741.741 1.2364.988 1.4834.741.494 7.1666-.494 6.9196-.494.4953 0 .7423-.2484.247-1.2363-.494-1.2363-1.9759-3.4605-2.2242-5.6847-.988-8.6499 5.1907-9.8862 6.1787-10.1332 1.4832-.247 2.7195-.247 4.2014 0 .4953 0 1.7303.247 1.9772.7424.4954.9879-.247 2.7181-.741 4.6954-.4939 1.4832-4.6953 16.8058-5.9316 21.0072-.741 3.2135-3.9545 10.1332-7.1666 11.1225-.7423.247-1.7303.247-2.7196 0-.9879-.247-1.9772-.7424-2.7181-1.2363-1.9773-1.9773-3.2136-5.9317-3.4605-8.8969-.247-3.7075.4953-6.4257-.247-6.4257-1.2892 0-5.5965 1.7018-7.343 2.9557-.0028.0027-.0055.0027-.0082.0054-.7084.5062-.7545.604-.7545.604a.5294.5294 0 00-.0828.103c-.456.7777-.4248 3.542-.2144 5.2288.7423 3.7075 2.7195 7.909 5.6847 9.8862 7.909 5.4363 21.7495-4.4485 23.2314-5.4378 2.2243-1.9772 3.7075-4.6954 4.2015-6.6726.7423-2.4712 1.9772-6.6727 1.9772-6.6727h7.415s-2.9665 11.1211-3.7075 13.8393c-.741 2.2242-1.2363 5.9317.741 5.6847 7.415 0 10.3814-2.7182 10.6284-2.9651.247-.247.247-.7424 0-.9893-.494-.247-2.2242-1.9773-1.2363-4.4485"
        fill="#fff" />
</svg>