<svg width="100" height="106" viewBox="0 0 100 106" fill="none" xmlns="http://www.w3.org/2000/svg">
<g clip-path="url(#clip0_174_431)">
<path d="M49.0382 61.4745C45.9322 61.3914 42.6826 60.4819 39.7019 58.7346C37.9715 57.7194 36.3369 56.5381 34.6769 55.4047C31.5864 53.297 28.5085 51.1681 25.4251 49.0505C22.9175 47.3272 20.4099 45.6024 17.898 43.8847C14.1711 41.3348 10.4653 38.7512 6.69759 36.2605C5.22484 35.2876 3.80279 34.2443 2.35258 33.2418C-0.480269 31.2861 -0.770311 27.3888 1.56693 24.8854C2.61024 23.7675 4.00132 23.3029 5.24456 22.5792C15.6058 16.5404 25.9981 10.5537 36.3847 4.55711C38.9205 3.09422 41.4042 1.52996 44.2835 0.768245C49.9844 -0.739696 55.3896 -0.0385246 60.4991 2.89851C64.5175 5.20759 68.5232 7.5392 72.5317 9.86517C76.9048 12.4037 81.2766 14.9466 85.6484 17.4879C89.3711 19.6506 93.0811 21.8358 96.8206 23.9689C99.4775 25.4838 100.557 28.0618 99.6098 30.9411C99.1368 32.3787 98.0048 33.2559 96.808 34.0654C93.8836 36.0436 90.9621 38.0247 88.0447 40.0113C84.8768 42.1697 81.7117 44.3338 78.5494 46.5021C75.4814 48.6056 72.4261 50.7274 69.3525 52.8225C67.0166 54.4149 64.6301 55.9327 62.3224 57.5631C59.4347 59.6019 56.2583 60.8634 52.7679 61.3365C51.6528 61.4886 50.5264 61.5421 49.0396 61.4731L49.0382 61.4745Z" fill="#D7D7D7"/>
<path d="M50.2913 83.3756C47.191 83.4798 44.2455 82.8279 41.4366 81.5311C39.2345 80.5146 37.3168 79.0432 35.3175 77.7C33.0873 76.2019 30.8641 74.6912 28.6282 73.2015C27.3287 72.337 26.0727 71.3726 24.7718 70.4968C23.0597 69.3437 21.3208 68.2201 19.6313 67.0388C17.9318 65.8505 16.2169 64.6763 14.5302 63.4668C12.7322 62.1785 10.8722 60.9775 9.04751 59.7258C7.25516 58.4967 5.4797 57.2407 3.68453 56.0172C2.77779 55.3991 1.84994 54.8359 1.16566 53.932C-0.671743 51.5075 0.0435078 47.6538 2.66093 46.1121C4.32657 45.1308 6.00487 44.1733 7.66347 43.1793C7.97041 42.9963 8.14077 42.9963 8.45053 43.2075C12.9082 46.2628 17.3898 49.2857 21.8516 52.3354C24.11 53.8785 26.3022 55.523 28.5944 57.0126C31.6272 58.9838 34.4727 61.2394 37.6336 63.012C40.2862 64.4989 43.1205 65.4478 46.1448 65.9251C48.2709 66.2616 50.3871 66.3743 52.5018 66.1448C55.0587 65.8674 57.5522 65.2831 59.9528 64.2764C62.5674 63.181 64.8695 61.6041 67.1743 60.0018C69.7467 58.2137 72.3543 56.4776 74.9421 54.712C78.8028 52.0763 82.6578 49.4321 86.5185 46.7964C88.2151 45.639 89.9258 44.5042 91.6168 43.3398C92.0251 43.0582 92.3532 43.2736 92.6573 43.4482C93.9794 44.2043 95.2564 45.0392 96.5982 45.7531C97.6091 46.2909 98.468 46.9639 99.1663 47.8608C100.287 49.2969 100.248 52.3452 99.2325 53.856C98.4567 55.0105 97.3346 55.692 96.2532 56.4466C94.0117 58.0081 91.7576 59.5512 89.4978 61.0873C87.1803 62.6629 84.8444 64.2116 82.5283 65.7914C80.7148 67.0276 78.9281 68.3018 77.1189 69.5436C75.3265 70.7742 73.5215 71.9865 71.7235 73.2058C69.4623 74.7405 67.1969 76.2695 64.9399 77.8113C62.4703 79.498 60.0514 81.265 57.1833 82.2605C54.9489 83.0362 52.6623 83.4544 50.2927 83.3742L50.2913 83.3756Z" fill="#D7D7D7" fill-opacity="0.5"/>
<path d="M50.2913 105.32C47.191 105.424 44.2455 104.773 41.4366 103.476C39.2345 102.459 37.3168 100.988 35.3175 99.6447C33.0873 98.1466 30.8641 96.6359 28.6282 95.1462C27.3287 94.2818 26.0727 93.3173 24.7718 92.4415C23.0597 91.2884 21.3208 90.1648 19.6313 88.9835C17.9318 87.7952 16.2169 86.621 14.5302 85.4115C12.7322 84.1232 10.8722 82.9222 9.04751 81.6705C7.25516 80.4414 5.4797 79.1854 3.68453 77.9619C2.77779 77.3438 1.84994 76.7806 1.16566 75.8767C-0.671743 73.4522 0.0435078 69.5985 2.66093 68.0568C4.32657 67.0755 6.00487 66.118 7.66347 65.124C7.97041 64.941 8.14077 64.941 8.45053 65.1522C12.9082 68.2075 17.3898 71.2304 21.8516 74.2801C24.11 75.8232 26.3022 77.4677 28.5944 78.9573C31.6272 80.9285 34.4727 83.1841 37.6336 84.9567C40.2862 86.4436 43.1205 87.3925 46.1448 87.8698C48.2709 88.2063 50.3871 88.319 52.5018 88.0895C55.0587 87.8121 57.5522 87.2278 59.9528 86.2211C62.5674 85.1257 64.8695 83.5488 67.1743 81.9465C69.7467 80.1584 72.3543 78.4223 74.9421 76.6567C78.8028 74.021 82.6578 71.3768 86.5185 68.7411C88.2151 67.5837 89.9258 66.4489 91.6168 65.2845C92.0251 65.0029 92.3532 65.2183 92.6573 65.3929C93.9794 66.149 95.2564 66.9839 96.5982 67.6978C97.6091 68.2356 98.468 68.9086 99.1663 69.8055C100.287 71.2416 100.248 74.2899 99.2325 75.8007C98.4567 76.9552 97.3346 77.6367 96.2532 78.3913C94.0117 79.9528 91.7576 81.4959 89.4978 83.032C87.1803 84.6076 84.8444 86.1563 82.5283 87.7361C80.7148 88.9723 78.9281 90.2465 77.1189 91.4883C75.3265 92.7189 73.5215 93.9312 71.7235 95.1505C69.4623 96.6852 67.1969 98.2142 64.9399 99.756C62.4703 101.443 60.0514 103.21 57.1833 104.205C54.9489 104.981 52.6623 105.399 50.2927 105.319L50.2913 105.32Z" fill="#D7D7D7" fill-opacity="0.2"/>
</g>
<defs>
<clipPath id="clip0_174_431">
<rect width="100" height="105.331" fill="white" transform="translate(0 -0.000488281)"/>
</clipPath>
</defs>
</svg>
