<svg width="155" height="56" viewBox="0 0 155 56" fill="none" xmlns="http://www.w3.org/2000/svg">
<path fill-rule="evenodd" clip-rule="evenodd" d="M22.4653 0.00683328C22.7855 -0.0465285 23.1057 0.22028 23.1057 0.540451V5.55646C23.1057 5.71655 23.2657 5.87663 23.4258 5.82327C24.8666 5.5031 26.3607 5.34301 27.9082 5.34301C28.7086 5.34301 29.4557 5.39637 30.2028 5.44974C31.0566 5.55646 31.9104 5.66318 32.7641 5.87663C33.031 5.92999 33.191 6.14344 33.191 6.41025V14.4679C33.191 14.8414 32.8175 15.1082 32.444 15.0015C31.7503 14.7347 31.0032 14.5212 30.2028 14.4145C29.4557 14.3078 28.7086 14.2011 27.9082 14.2011C21.238 14.2011 15.6884 19.1637 14.7812 25.6205C14.7812 25.7806 14.8879 25.9407 15.048 25.9407H17.4493C17.556 25.9407 17.7161 25.8339 17.7161 25.7272C18.4098 21.565 21.6115 18.2566 25.7204 17.3494C26.0406 17.2961 26.4141 17.5095 26.4141 17.883V19.8041C26.4141 20.0709 26.254 20.2843 25.9872 20.3377C22.8389 21.1915 20.5443 24.0196 20.5443 27.4348C20.5443 30.8499 22.8389 33.6781 25.9872 34.5319C26.254 34.5853 26.4141 34.7987 26.4141 35.0655V42.9631C26.4141 43.2832 26.1473 43.5501 25.8271 43.4967C17.9296 42.4828 11.7396 35.6525 11.7396 27.4348C11.7396 18.5234 18.9968 11.2662 27.9082 11.2662C28.6019 11.2662 29.2423 11.3195 29.8826 11.3729C30.0427 11.3729 30.2028 11.2662 30.2028 11.1061V8.70481C30.2028 8.54472 30.0961 8.438 29.936 8.438C29.2423 8.38463 28.5486 8.33127 27.8549 8.33127C17.2892 8.33127 8.75133 16.9225 8.75133 27.4348C8.75133 38.4273 18.0896 47.2854 29.2423 46.485C38.7407 45.8446 46.3714 38.2139 47.0117 28.8222C47.5987 20.7646 43.1163 13.6675 36.4995 10.359C36.3394 10.2523 36.1793 10.0922 36.1793 9.87877V7.37076C36.1793 7.15731 36.3927 7.05059 36.5528 7.10395C44.4504 10.4657 50 18.3099 50 27.4348C50 37.7336 42.9562 46.3782 33.4045 48.8329C33.2978 48.8862 33.191 48.993 33.191 49.0997V54.4359C33.191 54.7027 32.9776 54.9161 32.7641 54.9695C31.9637 55.1296 31.1099 55.2363 30.2561 55.2896C29.5091 55.343 28.7086 55.3964 27.9616 55.3964C12.54 55.3964 0 42.8564 0 27.4348C0 14.7347 8.53789 3.95561 20.1708 0.593813C20.9178 0.380366 21.7183 0.166919 22.4653 0.00683328ZM5.65635 28.9289H3.30843C3.14835 28.9289 3.04162 29.089 3.04162 29.2491C3.94877 42.216 14.7812 52.4615 27.9616 52.4615C28.6553 52.4615 29.349 52.4081 29.9893 52.3547C30.1494 52.3547 30.2561 52.248 30.2561 52.0879V49.6867C30.2561 49.5266 30.0961 49.4198 29.936 49.4198C29.2956 49.4732 28.6019 49.5266 27.9082 49.5266C16.3287 49.5266 6.77695 40.5618 5.92316 29.1957C5.92316 29.0356 5.81644 28.9289 5.65635 28.9289ZM17.556 28.9289H15.1547C14.9947 28.9289 14.8346 29.089 14.8879 29.2491C15.5283 34.0517 18.7834 38.0538 23.159 39.7614C23.3191 39.8147 23.5326 39.708 23.5326 39.4946V37.0399C23.5326 36.8265 23.4258 36.6664 23.2124 36.5597C20.3842 35.1189 18.3565 32.3441 17.8228 29.1424C17.7695 29.0356 17.6628 28.9289 17.556 28.9289ZM29.4557 17.883C29.4557 17.5095 29.7759 17.2961 30.1494 17.3494C34.7919 18.3633 38.3138 22.4721 38.3138 27.4348C38.3138 32.3974 34.7919 36.5063 30.1494 37.5202C29.8292 37.5735 29.4557 37.3601 29.4557 36.9866V35.0655C29.4557 34.7987 29.6158 34.5853 29.8826 34.5319C32.444 33.8382 34.4184 31.8105 35.1121 29.2491C35.1654 29.089 35.0053 28.9289 34.8453 28.9289H32.3372C32.2305 28.9289 32.1238 28.9823 32.0704 29.089C31.4301 30.6899 29.8292 31.8638 27.9616 31.8638C25.2401 31.8638 23.0523 29.3558 23.6393 26.5276C23.9594 24.8201 25.3469 23.4327 27.0544 23.0591C29.2956 22.6322 31.3234 23.8596 32.0704 25.7272C32.1238 25.8339 32.2305 25.8873 32.3372 25.8873H34.8453C35.0053 25.8873 35.1654 25.7272 35.1121 25.5671C34.4717 23.0058 32.444 20.978 29.8826 20.2843C29.6158 20.231 29.4557 20.0175 29.4557 19.7507V17.883ZM27.9616 25.994C27.1612 25.994 26.5208 26.6344 26.5208 27.4348C26.5208 28.2352 27.1612 28.8756 27.9616 28.8756C28.762 28.8756 29.4023 28.2352 29.4023 27.4348C29.4023 26.6344 28.762 25.994 27.9616 25.994ZM20.1708 4.06233C20.1708 3.84888 19.9573 3.74216 19.7972 3.79552C10.5656 6.99723 3.73533 15.4818 3.04162 25.6739C3.04162 25.8339 3.14835 25.994 3.30843 25.994H5.70971C5.8698 25.994 5.97652 25.8873 5.97652 25.7272C6.61686 17.0826 12.2732 9.8254 20.0107 6.83714C20.1174 6.78378 20.1708 6.67706 20.1708 6.57033V4.06233Z" fill="black"/>
<path d="M62.1136 37V19.5455H72.6477V21.4205H64.2273V27.3182H72.1023V29.1932H64.2273V35.125H72.7841V37H62.1136ZM82.0142 23.9091V25.6136H74.9574V23.9091H82.0142ZM77.071 37V22.1023C77.071 21.3523 77.2472 20.7273 77.5994 20.2273C77.9517 19.7273 78.4091 19.3523 78.9716 19.1023C79.5341 18.8523 80.1278 18.7273 80.7528 18.7273C81.2472 18.7273 81.6506 18.767 81.9631 18.8466C82.2756 18.9261 82.5085 19 82.6619 19.0682L82.0824 20.8068C81.9801 20.7727 81.8381 20.7301 81.6562 20.679C81.4801 20.6278 81.2472 20.6023 80.9574 20.6023C80.2926 20.6023 79.8125 20.7699 79.517 21.1051C79.2273 21.4403 79.0824 21.9318 79.0824 22.5795V37H77.071ZM90.6626 23.9091V25.6136H83.6058V23.9091H90.6626ZM85.7195 37V22.1023C85.7195 21.3523 85.8956 20.7273 86.2479 20.2273C86.6001 19.7273 87.0575 19.3523 87.62 19.1023C88.1825 18.8523 88.7763 18.7273 89.4013 18.7273C89.8956 18.7273 90.299 18.767 90.6115 18.8466C90.924 18.9261 91.157 19 91.3104 19.0682L90.7308 20.8068C90.6286 20.7727 90.4865 20.7301 90.3047 20.679C90.1286 20.6278 89.8956 20.6023 89.6058 20.6023C88.9411 20.6023 88.4609 20.7699 88.1655 21.1051C87.8757 21.4403 87.7308 21.9318 87.7308 22.5795V37H85.7195ZM98.4311 37.2727C97.1697 37.2727 96.0817 36.9943 95.1669 36.4375C94.2578 35.875 93.5561 35.0909 93.0618 34.0852C92.5732 33.0739 92.3288 31.8977 92.3288 30.5568C92.3288 29.2159 92.5732 28.0341 93.0618 27.0114C93.5561 25.983 94.2436 25.1818 95.1243 24.608C96.0107 24.0284 97.0447 23.7386 98.2266 23.7386C98.9084 23.7386 99.5817 23.8523 100.246 24.0795C100.911 24.3068 101.516 24.6761 102.062 25.1875C102.607 25.6932 103.042 26.3636 103.366 27.1989C103.69 28.0341 103.852 29.0625 103.852 30.2841V31.1364H93.7607V29.3977H101.806C101.806 28.6591 101.658 28 101.363 27.4205C101.073 26.8409 100.658 26.3835 100.119 26.0483C99.5845 25.7131 98.9538 25.5455 98.2266 25.5455C97.4254 25.5455 96.7322 25.7443 96.147 26.142C95.5675 26.5341 95.1214 27.0455 94.8089 27.6761C94.4964 28.3068 94.3402 28.983 94.3402 29.7045V30.8636C94.3402 31.8523 94.5107 32.6903 94.8516 33.3778C95.1982 34.0597 95.6783 34.5795 96.2919 34.9375C96.9055 35.2898 97.6186 35.4659 98.4311 35.4659C98.9595 35.4659 99.4368 35.392 99.8629 35.2443C100.295 35.0909 100.667 34.8636 100.979 34.5625C101.292 34.2557 101.533 33.875 101.704 33.4205L103.647 33.9659C103.442 34.625 103.099 35.2045 102.616 35.7045C102.133 36.1989 101.536 36.5852 100.826 36.8636C100.116 37.1364 99.3175 37.2727 98.4311 37.2727ZM112.229 37.2727C111.002 37.2727 109.945 36.983 109.059 36.4034C108.173 35.8239 107.491 35.0256 107.013 34.0085C106.536 32.9915 106.298 31.8295 106.298 30.5227C106.298 29.1932 106.542 28.0199 107.031 27.0028C107.525 25.9801 108.212 25.1818 109.093 24.608C109.979 24.0284 111.013 23.7386 112.195 23.7386C113.116 23.7386 113.945 23.9091 114.684 24.25C115.423 24.5909 116.028 25.0682 116.499 25.6818C116.971 26.2955 117.263 27.0114 117.377 27.8295H115.366C115.212 27.233 114.871 26.7045 114.343 26.2443C113.82 25.7784 113.116 25.5455 112.229 25.5455C111.445 25.5455 110.758 25.75 110.167 26.1591C109.582 26.5625 109.124 27.1335 108.795 27.8722C108.471 28.6051 108.309 29.4659 108.309 30.4545C108.309 31.4659 108.468 32.3466 108.786 33.0966C109.11 33.8466 109.565 34.429 110.15 34.8438C110.741 35.2585 111.434 35.4659 112.229 35.4659C112.752 35.4659 113.227 35.375 113.653 35.1932C114.079 35.0114 114.44 34.75 114.735 34.4091C115.031 34.0682 115.241 33.6591 115.366 33.1818H117.377C117.263 33.9545 116.982 34.6506 116.533 35.2699C116.09 35.8835 115.502 36.3722 114.769 36.7358C114.042 37.0938 113.195 37.2727 112.229 37.2727ZM126.011 23.9091V25.6136H119.227V23.9091H126.011ZM121.204 20.7727H123.215V33.25C123.215 33.8182 123.298 34.2443 123.462 34.5284C123.633 34.8068 123.849 34.9943 124.11 35.0909C124.377 35.1818 124.658 35.2273 124.954 35.2273C125.175 35.2273 125.357 35.2159 125.499 35.1932C125.641 35.1648 125.755 35.142 125.84 35.125L126.249 36.9318C126.113 36.983 125.923 37.0341 125.678 37.0852C125.434 37.142 125.124 37.1705 124.749 37.1705C124.181 37.1705 123.624 37.0483 123.079 36.804C122.539 36.5597 122.09 36.1875 121.732 35.6875C121.38 35.1875 121.204 34.5568 121.204 33.7955V20.7727ZM134.345 37H132.129L138.538 19.5455H140.72L147.129 37H144.913L139.697 22.3068H139.561L134.345 37ZM135.163 30.1818H144.095V32.0568H135.163V30.1818ZM151.961 19.5455V37H149.848V19.5455H151.961Z" fill="black"/>
</svg>
