<svg width="112" height="32" viewBox="0 0 112 32" fill="none" xmlns="http://www.w3.org/2000/svg">
<path d="M9.67898 31.3281C7.98864 31.3281 6.45241 30.8906 5.07031 30.0156C3.68821 29.1406 2.58452 27.8281 1.75923 26.0781C0.933949 24.3281 0.521307 22.1555 0.521307 19.5604C0.521307 16.8658 0.948864 14.6484 1.80398 12.9084C2.65909 11.1683 3.7777 9.88068 5.1598 9.04545C6.55185 8.21023 8.0483 7.79261 9.64915 7.79261C10.8523 7.79261 11.8814 8.00142 12.7365 8.41903C13.5916 8.8267 14.2976 9.35369 14.8544 10C15.4112 10.6463 15.8338 11.3175 16.1222 12.0135H16.2713V0.454545H23.5646V31H16.3459V27.2862H16.1222C15.8139 27.9922 15.3764 28.6534 14.8097 29.2699C14.2429 29.8864 13.532 30.3835 12.6768 30.7614C11.8317 31.1392 10.8324 31.3281 9.67898 31.3281ZM12.2145 25.6456C13.0994 25.6456 13.8551 25.397 14.4815 24.8999C15.108 24.3928 15.5902 23.6818 15.9283 22.767C16.2663 21.8523 16.4354 20.7784 16.4354 19.5455C16.4354 18.2926 16.2663 17.2138 15.9283 16.3089C15.6001 15.4041 15.1179 14.7081 14.4815 14.2209C13.8551 13.7337 13.0994 13.4901 12.2145 13.4901C11.3097 13.4901 10.544 13.7386 9.91761 14.2358C9.29119 14.733 8.81392 15.4339 8.4858 16.3388C8.16761 17.2436 8.00852 18.3125 8.00852 19.5455C8.00852 20.7784 8.17259 21.8523 8.50071 22.767C8.82884 23.6818 9.30114 24.3928 9.91761 24.8999C10.544 25.397 11.3097 25.6456 12.2145 25.6456ZM38.8858 31.4325C36.4895 31.4325 34.4213 30.9602 32.6813 30.0156C30.9512 29.0611 29.6188 27.7038 28.6841 25.9439C27.7594 24.174 27.2971 22.071 27.2971 19.6349C27.2971 17.2685 27.7644 15.2003 28.699 13.4304C29.6337 11.6506 30.9512 10.2685 32.6515 9.28409C34.3517 8.28977 36.3553 7.79261 38.6621 7.79261C40.2928 7.79261 41.7843 8.04616 43.1365 8.55327C44.4888 9.06037 45.6571 9.81108 46.6415 10.8054C47.6259 11.7997 48.3915 13.0277 48.9384 14.4893C49.4853 15.9411 49.7587 17.6065 49.7587 19.4858V21.3054H29.8475V17.0696H42.9725C42.9625 16.294 42.7786 15.603 42.4206 14.9964C42.0627 14.3899 41.5705 13.9176 40.9441 13.5795C40.3276 13.2315 39.6167 13.0575 38.8113 13.0575C37.9959 13.0575 37.2651 13.2415 36.6188 13.6094C35.9725 13.9673 35.4604 14.4595 35.0826 15.0859C34.7047 15.7024 34.5059 16.4034 34.486 17.1889V21.4993C34.486 22.4339 34.6699 23.2543 35.0378 23.9602C35.4057 24.6562 35.9277 25.1982 36.6039 25.5859C37.28 25.9737 38.0854 26.1676 39.0201 26.1676C39.6664 26.1676 40.253 26.0781 40.78 25.8991C41.307 25.7202 41.7594 25.4567 42.1373 25.1087C42.5151 24.7607 42.7985 24.3331 42.9874 23.826L49.6841 24.0199C49.4057 25.5213 48.7942 26.8288 47.8496 27.9425C46.915 29.0462 45.687 29.9062 44.1657 30.5227C42.6444 31.1293 40.8844 31.4325 38.8858 31.4325ZM60.777 0.454545V31H53.4837V0.454545H60.777ZM76.1131 31.4325C73.7069 31.4325 71.6387 30.9403 69.9086 29.956C68.1884 28.9616 66.861 27.5795 65.9263 25.8097C65.0016 24.0298 64.5392 21.9666 64.5392 19.62C64.5392 17.2635 65.0016 15.2003 65.9263 13.4304C66.861 11.6506 68.1884 10.2685 69.9086 9.28409C71.6387 8.28977 73.7069 7.79261 76.1131 7.79261C78.5194 7.79261 80.5826 8.28977 82.3027 9.28409C84.0328 10.2685 85.3603 11.6506 86.285 13.4304C87.2196 15.2003 87.687 17.2635 87.687 19.62C87.687 21.9666 87.2196 24.0298 86.285 25.8097C85.3603 27.5795 84.0328 28.9616 82.3027 29.956C80.5826 30.9403 78.5194 31.4325 76.1131 31.4325ZM76.1578 25.929C77.0328 25.929 77.7736 25.6605 78.3801 25.1236C78.9867 24.5866 79.449 23.8409 79.7672 22.8864C80.0953 21.9318 80.2594 20.8281 80.2594 19.5753C80.2594 18.3026 80.0953 17.1889 79.7672 16.2344C79.449 15.2798 78.9867 14.5341 78.3801 13.9972C77.7736 13.4602 77.0328 13.1918 76.1578 13.1918C75.253 13.1918 74.4874 13.4602 73.861 13.9972C73.2445 14.5341 72.7722 15.2798 72.4441 16.2344C72.1259 17.1889 71.9668 18.3026 71.9668 19.5753C71.9668 20.8281 72.1259 21.9318 72.4441 22.8864C72.7722 23.8409 73.2445 24.5866 73.861 25.1236C74.4874 25.6605 75.253 25.929 76.1578 25.929ZM111.424 15.0859L104.727 15.2649C104.657 14.7876 104.469 14.3651 104.16 13.9972C103.852 13.6193 103.449 13.326 102.952 13.1172C102.465 12.8984 101.898 12.7891 101.252 12.7891C100.407 12.7891 99.6859 12.9581 99.0893 13.2962C98.5027 13.6342 98.2143 14.0916 98.2243 14.6683C98.2143 15.1158 98.3933 15.5036 98.7612 15.8317C99.139 16.1598 99.8102 16.4233 100.775 16.6222L105.189 17.4574C107.476 17.8949 109.177 18.6207 110.29 19.6349C111.414 20.6491 111.981 21.9915 111.991 23.6619C111.981 25.233 111.513 26.6001 110.589 27.7635C109.674 28.9268 108.421 29.8317 106.83 30.478C105.239 31.1143 103.42 31.4325 101.371 31.4325C98.1 31.4325 95.5197 30.7614 93.6305 29.419C91.7512 28.0668 90.6774 26.2571 90.4089 23.9901L97.6127 23.8111C97.7718 24.6463 98.1845 25.2827 98.8507 25.7202C99.5169 26.1577 100.367 26.3764 101.401 26.3764C102.336 26.3764 103.096 26.2024 103.683 25.8544C104.27 25.5064 104.568 25.044 104.578 24.4673C104.568 23.9503 104.339 23.5376 103.892 23.2294C103.444 22.9112 102.743 22.6626 101.789 22.4837L97.7917 21.723C95.4949 21.3054 93.7846 20.5348 92.661 19.4112C91.5375 18.2777 90.9806 16.8359 90.9906 15.0859C90.9806 13.5547 91.3883 12.2472 92.2136 11.1634C93.0389 10.0696 94.2122 9.23438 95.7335 8.65767C97.2548 8.08097 99.0495 7.79261 101.118 7.79261C104.22 7.79261 106.666 8.44389 108.456 9.74645C110.246 11.0391 111.235 12.8189 111.424 15.0859Z" fill="#D7D7D7"/>
</svg>
